<svg xmlns="http://www.w3.org/2000/svg" version="1.1" xmlns:xlink="http://www.w3.org/1999/xlink" xmlns:svgjs="http://svgjs.dev/svgjs" width="1000" height="999" viewBox="0 0 1000 999"><g transform="matrix(1,0,0,1,-0.215743440233382,-0.21552769679306039)"><svg viewBox="0 0 343 343" data-background-color="#ffffff" preserveAspectRatio="xMidYMid meet" height="999" width="1000" xmlns="http://www.w3.org/2000/svg" xmlns:xlink="http://www.w3.org/1999/xlink"><g id="tight-bounds" transform="matrix(1,0,0,1,0.0740000000000407,0.07400000000001228)"><svg viewBox="0 0 342.85155851775386 342.85155851775386" height="342.85155851775386" width="342.85155851775386"><g><svg></svg></g><g><svg viewBox="0 0 342.85155851775386 342.85155851775386" height="342.85155851775386" width="342.85155851775386"><g><path d="M0 171.426c0-94.676 76.75-171.426 171.426-171.426 94.676 0 171.426 76.75 171.426 171.426 0 94.676-76.75 171.426-171.426 171.426-94.676 0-171.426-76.75-171.426-171.426zM171.426 339.679c92.924 0 168.253-75.329 168.253-168.253 0-92.924-75.329-168.253-168.253-168.253-92.924 0-168.253 75.329-168.253 168.253 0 92.924 75.329 168.253 168.253 168.253z" data-fill-palette-color="tertiary" fill="#010c80" stroke="transparent"></path><ellipse rx="164.56874808852186" ry="164.56874808852186" cx="171.42577925887693" cy="171.42577925887693" fill="#010c80" stroke="transparent" stroke-width="0" fill-opacity="1" data-fill-palette-color="tertiary"></ellipse></g><g transform="matrix(1,0,0,1,64.84655864529837,100.34380600694706)"><svg viewBox="0 0 213.1584412271571 142.16394650385973" height="142.16394650385973" width="213.1584412271571"><g><svg viewBox="0 0 213.1584412271571 142.16394650385973" height="142.16394650385973" width="213.1584412271571"><g><svg viewBox="0 0 213.1584412271571 142.16394650385973" height="142.16394650385973" width="213.1584412271571"><g transform="matrix(1,0,0,1,0,85.96824822600301)"><svg viewBox="0 0 213.1584412271571 56.195698277856735" height="56.195698277856735" width="213.1584412271571"><g id="textblocktransform"><svg viewBox="0 0 213.1584412271571 56.195698277856735" height="56.195698277856735" width="213.1584412271571" id="textblock"><g><svg viewBox="0 0 213.1584412271571 35.182708983568794" height="35.182708983568794" width="213.1584412271571"><g transform="matrix(1,0,0,1,0,0)"><svg width="213.1584412271571" viewBox="2.4200000762939453 -37.5 290.17999267578125 47.900001525878906" height="35.182708983568794" data-palette-color="#ffffff"><path d="M32.03-18.68L32.03-16.85Q32.03-11.45 30.18-7.57 28.32-3.69 25.01-1.6 21.7 0.49 17.26 0.49L17.26 0.49Q12.92 0.49 9.56-1.6 6.2-3.69 4.31-7.57 2.42-11.45 2.42-16.85L2.42-16.85 2.42-18.68Q2.42-24.07 4.3-27.97 6.18-31.86 9.52-33.95 12.87-36.04 17.21-36.04L17.21-36.04Q21.66-36.04 24.98-33.95 28.3-31.86 30.16-27.97 32.03-24.07 32.03-18.68L32.03-18.68ZM25.71-16.85L25.71-18.73Q25.71-22.66 24.71-25.35 23.71-28.05 21.8-29.43 19.9-30.81 17.21-30.81L17.21-30.81Q14.58-30.81 12.68-29.43 10.79-28.05 9.78-25.35 8.76-22.66 8.76-18.73L8.76-18.73 8.76-16.85Q8.76-12.92 9.79-10.21 10.82-7.5 12.72-6.1 14.62-4.71 17.26-4.71L17.26-4.71Q19.97-4.71 21.86-6.1 23.75-7.5 24.73-10.21 25.71-12.92 25.71-16.85L25.71-16.85ZM43.48-20.78L43.48 0 37.42 0 37.42-26.42 43.11-26.42 43.48-20.78ZM42.4-14.16L40.45-14.14Q40.48-17.97 41.79-20.84 43.11-23.71 45.48-25.31 47.85-26.9 51-26.9L51-26.9Q53.56-26.9 55.44-25.94 57.32-24.98 58.37-22.81 59.42-20.65 59.42-17.02L59.42-17.02 59.42 0 53.34 0 53.34-17.07Q53.34-18.9 52.82-19.97 52.29-21.04 51.25-21.5 50.22-21.95 48.73-21.95L48.73-21.95Q47.21-21.95 46.05-21.35 44.89-20.75 44.08-19.68 43.26-18.6 42.83-17.19 42.4-15.77 42.4-14.16L42.4-14.16ZM71.8-37.5L71.8 0 65.74 0 65.74-37.5 71.8-37.5ZM84.61-26.42L84.61 0 78.56 0 78.56-26.42 84.61-26.42ZM78.17-33.33L78.17-33.33Q78.17-34.72 79.07-35.63 79.97-36.55 81.58-36.55L81.58-36.55Q83.2-36.55 84.12-35.63 85.05-34.72 85.05-33.33L85.05-33.33Q85.05-31.96 84.12-31.04 83.2-30.13 81.58-30.13L81.58-30.13Q79.97-30.13 79.07-31.04 78.17-31.96 78.17-33.33ZM96.96-20.78L96.96 0 90.91 0 90.91-26.42 96.6-26.42 96.96-20.78ZM95.89-14.16L93.94-14.14Q93.96-17.97 95.28-20.84 96.6-23.71 98.96-25.31 101.33-26.9 104.48-26.9L104.48-26.9Q107.05-26.9 108.93-25.94 110.81-24.98 111.86-22.81 112.91-20.65 112.91-17.02L112.91-17.02 112.91 0 106.83 0 106.83-17.07Q106.83-18.9 106.3-19.97 105.78-21.04 104.74-21.5 103.7-21.95 102.21-21.95L102.21-21.95Q100.7-21.95 99.54-21.35 98.38-20.75 97.56-19.68 96.74-18.6 96.32-17.19 95.89-15.77 95.89-14.16L95.89-14.16ZM130.53 0.49L130.53 0.49Q126.6 0.49 123.74-1.21 120.89-2.91 119.35-5.8 117.81-8.69 117.81-12.28L117.81-12.28 117.81-13.28Q117.81-17.41 119.37-20.47 120.93-23.54 123.66-25.22 126.38-26.9 129.82-26.9L129.82-26.9Q133.63-26.9 136.14-25.26 138.66-23.61 139.9-20.69 141.15-17.77 141.15-13.94L141.15-13.94 141.15-11.33 120.72-11.33 120.72-15.7 135.17-15.7 135.17-16.16Q135.12-17.7 134.58-19.04 134.05-20.39 132.89-21.22 131.73-22.05 129.8-22.05L129.8-22.05Q127.87-22.05 126.55-20.96 125.23-19.87 124.55-17.91 123.86-15.94 123.86-13.28L123.86-13.28 123.86-12.28Q123.86-10.03 124.69-8.25 125.52-6.47 127.11-5.43 128.7-4.39 130.9-4.39L130.9-4.39Q133.02-4.39 134.67-5.22 136.32-6.05 137.51-7.62L137.51-7.62 140.69-4.44Q139.44-2.56 136.94-1.04 134.44 0.49 130.53 0.49ZM173.2-10.72L173.2-35.55 179.5-35.55 179.5-10.72Q179.5-7.18 177.99-4.68 176.47-2.17 173.84-0.84 171.2 0.49 167.85 0.49L167.85 0.49Q164.46 0.49 161.84-0.67 159.21-1.83 157.71-4.21 156.21-6.59 156.21-10.23L156.21-10.23 162.51-10.23Q162.51-7.18 163.98-5.87 165.46-4.57 167.85-4.57L167.85-4.57Q169.44-4.57 170.64-5.29 171.83-6.01 172.52-7.37 173.2-8.74 173.2-10.72L173.2-10.72ZM201.69-6.25L201.69-26.42 207.74-26.42 207.74 0 202.03 0 201.69-6.25ZM202.52-11.77L204.55-11.82Q204.55-8.25 203.5-5.48 202.45-2.71 200.22-1.11 198 0.49 194.46 0.49L194.46 0.49Q190.56 0.49 188.14-1.81 185.72-4.1 185.72-9.35L185.72-9.35 185.72-26.42 191.78-26.42 191.78-9.3Q191.78-7.47 192.35-6.41 192.92-5.35 193.88-4.91 194.83-4.47 195.98-4.47L195.98-4.47Q198.44-4.47 199.87-5.43 201.3-6.4 201.91-8.06 202.52-9.72 202.52-11.77L202.52-11.77ZM229.74-5.54L229.74-37.5 235.79-37.5 235.79 0 230.3 0 229.74-5.54ZM212.6-12.92L212.6-13.43Q212.6-17.43 213.86-20.47 215.11-23.51 217.43-25.21 219.75-26.9 223-26.9L223-26.9Q226.2-26.9 228.35-25.24 230.5-23.58 231.73-20.64 232.96-17.7 233.38-13.82L233.38-13.82 233.38-12.4Q232.96-8.64 231.74-5.74 230.52-2.83 228.36-1.17 226.2 0.49 222.95 0.49L222.95 0.49Q219.75 0.49 217.43-1.26 215.11-3 213.86-6.03 212.6-9.06 212.6-12.92L212.6-12.92ZM218.65-13.43L218.65-12.92Q218.65-10.57 219.24-8.65 219.83-6.74 221.11-5.6 222.39-4.47 224.49-4.47L224.49-4.47Q226.47-4.47 227.75-5.33 229.03-6.2 229.75-7.69 230.47-9.18 230.74-11.04L230.74-11.04 230.74-15.16Q230.57-16.63 230.13-17.87 229.69-19.12 228.94-20.02 228.2-20.92 227.1-21.44 226-21.95 224.54-21.95L224.54-21.95Q222.44-21.95 221.13-20.81 219.83-19.68 219.24-17.74 218.65-15.8 218.65-13.43L218.65-13.43ZM258.79-26.42L264.31-26.42 264.31-0.76Q264.31 2.81 262.77 5.31 261.23 7.81 258.51 9.11 255.79 10.4 252.2 10.4L252.2 10.4Q250.68 10.4 248.84 9.97 247 9.55 245.26 8.59 243.53 7.64 242.36 6.1L242.36 6.1 245.19 2.44Q246.61 4.08 248.3 4.87 250 5.66 251.88 5.66L251.88 5.66Q254.83 5.66 256.53 4.03 258.23 2.39 258.23-0.66L258.23-0.66 258.23-20.41 258.79-26.42ZM240.87-12.92L240.87-13.43Q240.87-17.43 242.15-20.47 243.43-23.51 245.81-25.21 248.19-26.9 251.46-26.9L251.46-26.9Q254.05-26.9 255.88-25.96 257.71-25.02 258.92-23.28 260.13-21.53 260.83-19.13 261.52-16.72 261.86-13.82L261.86-13.82 261.86-12.4Q261.43-8.64 260.23-5.74 259.03-2.83 256.87-1.17 254.71 0.49 251.42 0.49L251.42 0.49Q248.19 0.49 245.82-1.26 243.46-3 242.16-6.03 240.87-9.06 240.87-12.92L240.87-12.92ZM246.92-13.43L246.92-12.92Q246.92-10.57 247.56-8.65 248.19-6.74 249.52-5.6 250.85-4.47 252.95-4.47L252.95-4.47Q255-4.47 256.3-5.33 257.59-6.2 258.31-7.69 259.03-9.18 259.3-11.04L259.3-11.04 259.3-15.16Q259.15-16.63 258.73-17.87 258.3-19.12 257.53-20.02 256.76-20.92 255.64-21.44 254.52-21.95 253-21.95L253-21.95Q250.9-21.95 249.56-20.81 248.22-19.68 247.57-17.74 246.92-15.8 246.92-13.43L246.92-13.43ZM281.98 0.49L281.98 0.49Q278.05 0.49 275.19-1.21 272.34-2.91 270.8-5.8 269.26-8.69 269.26-12.28L269.26-12.28 269.26-13.28Q269.26-17.41 270.82-20.47 272.38-23.54 275.11-25.22 277.83-26.9 281.27-26.9L281.27-26.9Q285.08-26.9 287.59-25.26 290.11-23.61 291.35-20.69 292.6-17.77 292.6-13.94L292.6-13.94 292.6-11.33 272.16-11.33 272.16-15.7 286.62-15.7 286.62-16.16Q286.57-17.7 286.03-19.04 285.49-20.39 284.34-21.22 283.18-22.05 281.25-22.05L281.25-22.05Q279.32-22.05 278-20.96 276.68-19.87 276-17.91 275.31-15.94 275.31-13.28L275.31-13.28 275.31-12.28Q275.31-10.03 276.14-8.25 276.97-6.47 278.56-5.43 280.15-4.39 282.35-4.39L282.35-4.39Q284.47-4.39 286.12-5.22 287.77-6.05 288.96-7.62L288.96-7.62 292.14-4.44Q290.89-2.56 288.39-1.04 285.89 0.49 281.98 0.49Z" opacity="1" transform="matrix(1,0,0,1,0,0)" fill="#ffffff" class="wordmark-text-0" data-fill-palette-color="quaternary" id="text-0"></path></svg></g></svg></g><g transform="matrix(1,0,0,1,0,43.48850218957378)"><svg viewBox="0 0 213.1584412271571 12.707196088282954" height="12.707196088282954" width="213.1584412271571"><g transform="matrix(1,0,0,1,0,0)"><svg width="213.1584412271571" viewBox="1 -29.450000762939453 502.3599853515625 29.950000762939453" height="12.707196088282954" data-palette-color="#ffffff"><path d="M20.65 0L14.05 0 14-24.65 1-24.65 1-29.45 33.7-29.45 33.7-24.65 20.65-24.65 20.65 0ZM45.3 0L38.7 0 38.7-29.4 45.3-29.4 45.3-17.2 64.9-17.2 64.9-29.4 71.5-29.4 71.5 0 64.9 0 64.9-12.4 45.3-12.4 45.3 0ZM106.8 0L79.5 0 79.5-29.4 110.59-29.4 110.59-24.6 86.09-24.6 86.09-17.7 104.8-17.7 104.8-12.75 86.09-12.75 86.09-4.8 110.8-4.8 112.8-0.55Q112.8-0.35 111.45-0.18 110.09 0 106.8 0L106.8 0ZM132.09 0L124.79 0 139.44-29.4 149.29-29.4 163.89 0 156.19 0 153.24-6.35 135.34-6.35 132.09 0ZM144.04-24.9L137.14-11.25 151.39-11.25 144.54-24.9 144.04-24.9ZM199.84 0.5L199.84 0.5Q197.84 0.5 195.91-0.13 193.99-0.75 191.54-3.2L191.54-3.2 187.94-6.8Q185.74-9.05 183.11-10.1 180.49-11.15 176.54-11.15L176.54-11.15 174.99-11.15 174.99 0 168.39 0 168.39-25.4 167.89-29.45 190.04-29.45Q193.24-29.45 195.06-28.6 196.89-27.75 197.76-26.38 198.64-25 198.89-23.45 199.14-21.9 199.14-20.5L199.14-20.5 199.14-19.55Q199.14-18.45 198.84-17.1 198.54-15.75 197.69-14.45 196.84-13.15 195.26-12.25 193.69-11.35 191.14-11.2L191.14-11.2Q191.79-10.85 192.79-10.13 193.79-9.4 194.86-8.55 195.94-7.7 196.84-7 197.74-6.3 198.24-6L198.24-6Q200.04-4.95 201.44-4.55 202.84-4.15 203.74-4.1 204.64-4.05 204.79-4.05L204.79-4.05 203.79 0Q203.34 0.15 202.29 0.33 201.24 0.5 199.84 0.5ZM182.49-15.7L182.49-15.7Q184.39-15.7 185.89-15.78 187.39-15.85 188.59-15.95L188.59-15.95Q190.79-16.2 191.66-17.18 192.54-18.15 192.54-19.7L192.54-19.7 192.54-20.85Q192.54-22.45 191.69-23.55 190.84-24.65 188.64-24.65L188.64-24.65 174.99-24.65 174.99-15.95Q177.19-15.8 179.04-15.75 180.89-15.7 182.49-15.7ZM223.94 0L217.34 0 217.29-24.65 204.29-24.65 204.29-29.45 236.99-29.45 236.99-24.65 223.94-24.65 223.94 0ZM276.23 0L261.63 0Q258.13 0 256.13-1 254.13-2 253.31-4 252.48-6 252.48-8.95L252.48-8.95 252.48-20.5Q252.48-23.4 253.28-25.38 254.08-27.35 256.08-28.38 258.08-29.4 261.63-29.4L261.63-29.4 276.23-29.4Q279.73-29.4 281.71-28.38 283.68-27.35 284.5-25.38 285.33-23.4 285.33-20.5L285.33-20.5 285.33-8.95Q285.33-4.55 283.38-2.27 281.43 0 276.23 0L276.23 0ZM263.08-4.8L263.08-4.8 274.83-4.8Q276.68-4.8 277.71-5.75 278.73-6.7 278.73-8.35L278.73-8.35 278.73-21.1Q278.73-22.55 277.68-23.58 276.63-24.6 274.83-24.6L274.83-24.6 263.08-24.6Q261.28-24.6 260.18-23.65 259.08-22.7 259.08-21.1L259.08-21.1 259.08-8.35Q259.08-6.65 260.16-5.73 261.23-4.8 263.08-4.8ZM299.93 0L293.33 0 293.33-25.4 292.83-29.4 324.03-29.4 324.03-24.6 299.93-24.6 299.93-17.3 318.63-17.3 318.63-12.35 299.93-12.35 299.93 0ZM362.57 0L348.67 0Q345.12 0 343.12-1 341.12-2 340.32-4 339.52-6 339.52-8.95L339.52-8.95 339.52-20.1Q339.52-24.9 341.67-27.18 343.82-29.45 348.67-29.45L348.67-29.45 363.72-29.45Q367.17-29.45 369-29.08 370.82-28.7 370.82-28.3L370.82-28.3 369.82-24.15Q368.97-24.3 364.8-24.48 360.62-24.65 352.67-24.65L352.67-24.65 350.12-24.65Q346.12-24.65 346.12-21.1L346.12-21.1 346.12-8.35Q346.12-6.65 347-5.73 347.87-4.8 350.12-4.8L350.12-4.8 352.17-4.8Q360.47-4.8 365.05-4.98 369.62-5.15 370.72-5.35L370.72-5.35 372.77-2.05Q372.77-1.8 371.95-1.3 371.12-0.8 368.92-0.4 366.72 0 362.57 0L362.57 0ZM401.02 0L386.42 0Q382.92 0 380.92-1 378.92-2 378.1-4 377.27-6 377.27-8.95L377.27-8.95 377.27-20.5Q377.27-23.4 378.07-25.38 378.87-27.35 380.87-28.38 382.87-29.4 386.42-29.4L386.42-29.4 401.02-29.4Q404.52-29.4 406.5-28.38 408.47-27.35 409.3-25.38 410.12-23.4 410.12-20.5L410.12-20.5 410.12-8.95Q410.12-4.55 408.17-2.27 406.22 0 401.02 0L401.02 0ZM387.87-4.8L387.87-4.8 399.62-4.8Q401.47-4.8 402.5-5.75 403.52-6.7 403.52-8.35L403.52-8.35 403.52-21.1Q403.52-22.55 402.47-23.58 401.42-24.6 399.62-24.6L399.62-24.6 387.87-24.6Q386.07-24.6 384.97-23.65 383.87-22.7 383.87-21.1L383.87-21.1 383.87-8.35Q383.87-6.65 384.95-5.73 386.02-4.8 387.87-4.8ZM440.82 0L418.12 0 418.12-25.4 417.62-29.4 440.82-29.4Q444.87-29.4 447.04-28.4 449.22-27.4 450.07-25.43 450.92-23.45 450.92-20.5L450.92-20.5 450.92-8.95Q450.92-5.95 450.09-3.98 449.27-2 447.09-1 444.92 0 440.82 0L440.82 0ZM424.72-24.6L424.72-4.8 440.42-4.8Q444.27-4.8 444.32-8.35L444.32-8.35 444.32-21.1Q444.32-22.55 443.47-23.58 442.62-24.6 440.42-24.6L440.42-24.6 424.72-24.6ZM485.22 0L457.92 0 457.92-29.4 489.02-29.4 489.02-24.6 464.52-24.6 464.52-17.7 483.22-17.7 483.22-12.75 464.52-12.75 464.52-4.8 489.22-4.8 491.22-0.55Q491.22-0.35 489.87-0.18 488.52 0 485.22 0L485.22 0ZM499.76 0L499.76 0Q497.91 0 497.06-0.75 496.21-1.5 496.21-3.25L496.21-3.25Q496.21-5.05 497.04-5.78 497.86-6.5 499.76-6.5L499.76-6.5Q501.66-6.5 502.51-5.78 503.36-5.05 503.36-3.25L503.36-3.25Q503.36-1.55 502.51-0.78 501.66 0 499.76 0Z" opacity="1" transform="matrix(1,0,0,1,0,0)" fill="#ffffff" class="slogan-text-1" data-fill-palette-color="quaternary" id="text-1"></path></svg></g></svg></g></svg></g></svg></g><g transform="matrix(1,0,0,1,67.74799310357955,0)"><svg viewBox="0 0 77.66245501999802 77.66245501999802" height="77.66245501999802" width="77.66245501999802"><g><svg xmlns="http://www.w3.org/2000/svg" xmlns:xlink="http://www.w3.org/1999/xlink" version="1.1" x="0" y="0" viewBox="5 5 90 90" enable-background="new 0 0 100 100" xml:space="preserve" height="77.66245501999802" width="77.66245501999802" class="icon-icon-0" data-fill-palette-color="quaternary" id="icon-0"><path fill="#ffffff" d="M95 52c0-12.871-5.692-24.431-14.682-32.318C72.431 10.692 60.871 5 48 5 24.29 5 5 24.29 5 48c0 12.868 5.69 24.426 14.677 32.313C27.564 89.306 39.126 95 52 95c0.084 0 0.166-0.006 0.25-0.006S52.416 95 52.5 95C75.972 95 95 75.972 95 52.5c0-0.084-0.006-0.166-0.006-0.25S95 52.084 95 52zM21.828 73.371c-4.245-5.978-6.77-13.259-6.822-21.121 0.135-20.511 16.732-37.109 37.244-37.244 7.862 0.052 15.144 2.577 21.121 6.822C80.224 28.473 84.5 37.758 84.5 48c0 20.126-16.374 36.5-36.5 36.5C37.758 84.5 28.473 80.224 21.828 73.371zM6 48C6 24.841 24.841 6 48 6c9.858 0 18.926 3.422 26.1 9.13C67.637 11.242 60.076 9 52 9 28.29 9 9 28.29 9 52c0 8.074 2.241 15.633 6.127 22.095C9.421 66.923 6 57.856 6 48zM52 89c-10.08 0-19.227-4.055-25.905-10.615C32.269 82.854 39.838 85.5 48 85.5c20.678 0 37.5-16.822 37.5-37.5 0-8.162-2.646-15.731-7.115-21.905C84.945 32.773 89 41.92 89 52 89 72.402 72.402 89 52 89z" data-fill-palette-color="quaternary"></path></svg></g></svg></g><g></g></svg></g></svg></g></svg></g></svg></g><defs></defs></svg><rect width="342.85155851775386" height="342.85155851775386" fill="none" stroke="none" visibility="hidden"></rect></g></svg></g></svg>